<?xml version="1.0" encoding="UTF-8" standalone="no"?>
<svg
   width="41"
   height="38"
   viewBox="0 0 41 38"
   fill="none"
   version="1.1"
   id="svg4"
   sodipodi:docname="Icon Detected.svg"
   inkscape:version="1.2 (dc2aedaf03, 2022-05-15)"
   xmlns:inkscape="http://www.inkscape.org/namespaces/inkscape"
   xmlns:sodipodi="http://sodipodi.sourceforge.net/DTD/sodipodi-0.dtd"
   xmlns="http://www.w3.org/2000/svg"
   xmlns:svg="http://www.w3.org/2000/svg">
  <defs
     id="defs8" />
  <sodipodi:namedview
     id="namedview6"
     pagecolor="#ffffff"
     bordercolor="#000000"
     borderopacity="0.25"
     inkscape:showpageshadow="2"
     inkscape:pageopacity="0.0"
     inkscape:pagecheckerboard="0"
     inkscape:deskcolor="#d1d1d1"
     showgrid="false"
     inkscape:zoom="23.078947"
     inkscape:cx="12.933866"
     inkscape:cy="19.021665"
     inkscape:window-width="1920"
     inkscape:window-height="1057"
     inkscape:window-x="2152"
     inkscape:window-y="-8"
     inkscape:window-maximized="1"
     inkscape:current-layer="svg4" />
  <path
     fill-rule="evenodd"
     clip-rule="evenodd"
     d="M11.3116 0.379053C17.73 -0.159462 24.1768 -0.124129 30.5901 0.484713L34.4552 0.85165C37.3748 1.12882 39.7443 3.59539 40.1883 6.81966L40.4321 8.59066C41.2596 14.6004 41.1823 20.7216 40.2033 26.7031C39.7202 29.6544 37.4108 31.7992 34.7159 31.7992H13.3483C12.8567 31.7992 12.3728 31.9348 11.9398 32.1939L2.63045 37.7632C2.07716 38.0942 1.40833 38.0772 0.869205 37.7184C0.330082 37.3596 0 36.7118 0 36.0126V13.4425C0 6.60949 4.73085 0.931192 10.8516 0.417646L11.3116 0.379053ZM11.307 13.4884C9.66364 13.4884 8.33146 14.9714 8.33146 16.8008C8.33146 18.6301 9.66364 20.1131 11.307 20.1131C12.9503 20.1131 14.2825 18.6301 14.2825 16.8008C14.2825 14.9714 12.9503 13.4884 11.307 13.4884ZM20.8286 13.4884C19.1853 13.4884 17.8531 14.9714 17.8531 16.8008C17.8531 18.6301 19.1853 20.1131 20.8286 20.1131C22.472 20.1131 23.8042 18.6301 23.8042 16.8008C23.8042 14.9714 22.472 13.4884 20.8286 13.4884ZM27.3748 16.8008C27.3748 14.9714 28.707 13.4884 30.3503 13.4884C31.9936 13.4884 33.3258 14.9714 33.3258 16.8008C33.3258 18.6301 31.9936 20.1131 30.3503 20.1131C28.707 20.1131 27.3748 18.6301 27.3748 16.8008Z"
     fill="#FFFFFF"
     id="path2"
     style="fill:#ffffff;fill-opacity:1" />
</svg>
