<?xml version="1.0" encoding="UTF-8" standalone="no"?>
<svg
   height="150"
   width="150"
   version="1.1"
   id="svg4"
   sodipodi:docname="Phone Off.svg"
   inkscape:version="1.2 (dc2aedaf03, 2022-05-15)"
   xmlns:inkscape="http://www.inkscape.org/namespaces/inkscape"
   xmlns:sodipodi="http://sodipodi.sourceforge.net/DTD/sodipodi-0.dtd"
   xmlns="http://www.w3.org/2000/svg"
   xmlns:svg="http://www.w3.org/2000/svg">
  <defs
     id="defs8" />
  <sodipodi:namedview
     id="namedview6"
     pagecolor="#ffffff"
     bordercolor="#666666"
     borderopacity="1.0"
     inkscape:pageshadow="2"
     inkscape:pageopacity="0.0"
     inkscape:pagecheckerboard="0"
     showgrid="false"
     inkscape:zoom="3.2077605"
     inkscape:cx="32.733117"
     inkscape:cy="52.061243"
     inkscape:window-width="1920"
     inkscape:window-height="1017"
     inkscape:window-x="-8"
     inkscape:window-y="-8"
     inkscape:window-maximized="1"
     inkscape:current-layer="svg4"
     inkscape:showpageshadow="2"
     inkscape:deskcolor="#d1d1d1" />
  <path
     d="M 130.275,139.65 13.275001,20.55 q -1.2,-1.35 -1.275,-3.15 -0.075,-1.8 1.275,-3.15 1.35,-1.35 3.15,-1.35 1.8,0 3.15,1.35 L 136.725,133.35 q 1.35,1.35 1.275,3.15 -0.075,1.8 -1.425,3.15 -1.35,1.35 -3.15,1.35 -1.8,0 -3.15,-1.35 z M 35.925001,37.2 l 9,9.15 V 118.5 H 109.875 l 9.9,10.05 V 132 q 0.15,3.75 -2.55,6.375 -2.7,2.625 -6.45,2.625 H 44.925001 q -3.75,0 -6.375,-2.625 -2.625,-2.625 -2.625,-6.375 z m 9,90.3 V 132 H 110.925 v -4.5 z M 119.925,18 v 85.35 l -9,-9 V 31.5 H 49.125001 l -13.2,-13.2 V 18 q 0,-3.75 2.625,-6.375 Q 41.175001,9 44.925001,9 H 110.925 q 3.75,0 6.375,2.7 2.625,2.7 2.625,6.3 z M 44.925001,22.5 H 110.925 V 18 H 44.925001 Z m 0,105 v 4.5 z m 0,-105 V 18 Z"
     id="path2"
     style="stroke-width:3;fill:#ffff00" />
</svg>
