<?xml version="1.0" encoding="UTF-8" standalone="no"?>
<svg
   height="150"
   width="150"
   version="1.1"
   id="svg4"
   sodipodi:docname="Watch Off.svg"
   inkscape:version="1.2 (dc2aedaf03, 2022-05-15)"
   xmlns:inkscape="http://www.inkscape.org/namespaces/inkscape"
   xmlns:sodipodi="http://sodipodi.sourceforge.net/DTD/sodipodi-0.dtd"
   xmlns="http://www.w3.org/2000/svg"
   xmlns:svg="http://www.w3.org/2000/svg">
  <defs
     id="defs8" />
  <sodipodi:namedview
     id="namedview6"
     pagecolor="#ffffff"
     bordercolor="#666666"
     borderopacity="1.0"
     inkscape:pageshadow="2"
     inkscape:pageopacity="0.0"
     inkscape:pagecheckerboard="0"
     showgrid="false"
     width="150px"
     inkscape:zoom="4"
     inkscape:cx="79.75"
     inkscape:cy="73"
     inkscape:window-width="1920"
     inkscape:window-height="1017"
     inkscape:window-x="-8"
     inkscape:window-y="-8"
     inkscape:window-maximized="1"
     inkscape:current-layer="svg4"
     inkscape:showpageshadow="2"
     inkscape:deskcolor="#d1d1d1" />
  <path
     d="m 121.70816,102.91649 -7.95033,-7.950335 q 2.52965,-4.155851 4.15586,-9.395838 1.6262,-5.239987 1.6262,-11.564109 0,-16.623407 -11.56411,-28.187517 -11.564109,-11.564109 -28.187516,-11.564109 -6.324122,0 -11.564109,1.626203 -5.239987,1.626203 -9.395839,4.155852 L 50.877991,32.086312 57.021424,9.68085 Q 57.92487,6.067066 60.906242,3.8987955 63.887614,1.730525 67.501398,1.730525 H 92.07513 q 3.613784,0 6.595156,2.1682705 2.981374,2.1682705 3.884814,5.7820545 l 6.32413,22.947529 q 10.29928,6.324122 15.90065,17.346164 5.60136,11.022042 5.60136,24.031665 0,7.588946 -2.25861,15.358582 -2.25862,7.769636 -6.41447,13.5517 z M 64.068303,26.304257 q 2.529649,-1.084135 6.775845,-1.987581 4.246196,-0.903446 8.944116,-0.903446 4.51723,0 8.853771,0.903446 4.336541,0.903446 6.86619,1.987581 L 92.255819,12.571877 H 67.320709 Z M 67.501398,146.2819 q -3.613784,0 -6.595156,-2.16829 -2.981372,-2.16827 -3.884818,-5.78205 L 50.697302,115.38403 Q 41.301463,109.78267 35.248374,98.850975 29.195286,87.919276 29.195286,74.006208 q 0,-6.504812 1.716547,-13.551691 1.716548,-7.046879 5.330332,-12.828934 L 6.9705137,18.353932 Q 5.525,16.908418 5.525,14.649803 q 0,-2.258615 1.4455137,-3.704128 1.4455136,-1.445514 3.7041283,-1.445514 2.258615,0 3.704129,1.445514 L 143.02949,139.59638 q 1.44551,1.44552 1.44551,3.61379 0,2.16827 -1.44551,3.61378 -1.44552,1.44552 -3.70413,1.44552 -2.25862,0 -3.70413,-1.44552 l -27.82614,-27.64544 -5.23999,19.15305 q -0.90344,3.61378 -3.884814,5.78205 -2.981372,2.16829 -6.595156,2.16829 z m -0.180689,-10.84137 h 24.93511 l 3.252406,-13.73238 q -2.529649,1.26483 -6.775846,2.07793 -4.246196,0.8131 -8.944115,0.8131 -4.69792,0 -8.944116,-0.8131 -4.246196,-0.8131 -6.775845,-2.07793 z m 12.467555,-21.68269 q 5.059298,0 9.576528,-1.08415 4.51723,-1.08413 8.673082,-3.25239 L 44.373179,55.756598 q -2.16827,4.336541 -3.252405,8.853771 -1.084136,4.51723 -1.084136,9.395839 0,16.623406 11.56411,28.187522 11.564109,11.56411 28.187516,11.56411 z M 64.068303,12.571877 h 31.439922 z m 3.252406,122.868653 h -3.252406 31.439922 -3.252406 z"
     id="path2"
     style="stroke-width:3.61378;fill:#ffff00" />
</svg>
