<?xml version="1.0" encoding="UTF-8" standalone="no"?>
<svg
   width="250"
   height="250"
   fill="#ffffff"
   class="bi bi-pause-circle"
   viewBox="0 0 250 250"
   version="1.1"
   id="svg1695"
   sodipodi:docname="Button Insights.svg"
   inkscape:version="1.1.2 (b8e25be833, 2022-02-05)"
   inkscape:export-filename="C:\Hololens\Icons\Resources\Button Insights.png"
   inkscape:export-xdpi="96"
   inkscape:export-ydpi="96"
   xmlns:inkscape="http://www.inkscape.org/namespaces/inkscape"
   xmlns:sodipodi="http://sodipodi.sourceforge.net/DTD/sodipodi-0.dtd"
   xmlns="http://www.w3.org/2000/svg"
   xmlns:svg="http://www.w3.org/2000/svg">
  <defs
     id="defs1699" />
  <sodipodi:namedview
     id="namedview1697"
     pagecolor="#ffffff"
     bordercolor="#666666"
     borderopacity="1.0"
     inkscape:pageshadow="2"
     inkscape:pageopacity="0.0"
     inkscape:pagecheckerboard="0"
     showgrid="false"
     inkscape:zoom="1"
     inkscape:cx="-68.5"
     inkscape:cy="164"
     inkscape:window-width="1920"
     inkscape:window-height="1057"
     inkscape:window-x="-8"
     inkscape:window-y="-8"
     inkscape:window-maximized="1"
     inkscape:current-layer="svg1695" />
  <circle
     style="display:inline;fill:none;fill-opacity:1;stroke:#ffffff;stroke-width:7.81451;stroke-linecap:square;stroke-linejoin:round;stroke-miterlimit:4;stroke-dasharray:none;stroke-dashoffset:0;stroke-opacity:1;paint-order:normal"
     id="path263"
     cx="125"
     cy="125"
     r="121.09274"
     inkscape:label="path263" />
  <g
     id="g16"
     style="fill:#ffffff;stroke:none"
     transform="matrix(9.3267159,0,0,9.3267159,13.079409,17.742767)">
    <g
       id="g14"
       style="fill:#ffffff;stroke:none">
      <path
         d="m 21,8 c -1.45,0 -2.26,1.44 -1.93,2.51 l -3.55,3.56 c -0.3,-0.09 -0.74,-0.09 -1.04,0 L 11.93,11.52 C 12.27,10.45 11.46,9 10,9 8.55,9 7.73,10.44 8.07,11.52 L 3.51,16.07 C 2.44,15.74 1,16.55 1,18 c 0,1.1 0.9,2 2,2 1.45,0 2.26,-1.44 1.93,-2.51 l 4.55,-4.56 c 0.3,0.09 0.74,0.09 1.04,0 l 2.55,2.55 C 12.73,16.55 13.54,18 15,18 c 1.45,0 2.27,-1.44 1.93,-2.52 l 3.56,-3.55 C 21.56,12.26 23,11.45 23,10 23,8.9 22.1,8 21,8 Z"
         id="path8"
         style="fill:#ffffff;stroke:none" />
      <polygon
         points="15.94,5.07 15,3 14.08,5.07 12,6 14.08,6.93 15,9 15.94,6.93 18,6 "
         id="polygon10"
         style="fill:#ffffff;stroke:none" />
      <polygon
         points="4,8 3.5,6 3,8 1,8.5 3,9 3.5,11 4,9 6,8.5 "
         id="polygon12"
         style="fill:#ffffff;stroke:none" />
    </g>
  </g>
</svg>
