<?xml version="1.0" encoding="UTF-8" standalone="no"?>
<svg
   width="200"
   height="200"
   viewBox="0 0 200 200"
   fill="none"
   version="1.1"
   id="svg6"
   sodipodi:docname="Button No.svg"
   inkscape:version="1.2 (dc2aedaf03, 2022-05-15)"
   xmlns:inkscape="http://www.inkscape.org/namespaces/inkscape"
   xmlns:sodipodi="http://sodipodi.sourceforge.net/DTD/sodipodi-0.dtd"
   xmlns="http://www.w3.org/2000/svg"
   xmlns:svg="http://www.w3.org/2000/svg">
  <defs
     id="defs10" />
  <sodipodi:namedview
     id="namedview8"
     pagecolor="#ffffff"
     bordercolor="#000000"
     borderopacity="0.25"
     inkscape:showpageshadow="2"
     inkscape:pageopacity="0.0"
     inkscape:pagecheckerboard="0"
     inkscape:deskcolor="#d1d1d1"
     showgrid="false"
     inkscape:zoom="2.1925"
     inkscape:cx="32.611174"
     inkscape:cy="54.732041"
     inkscape:window-width="1920"
     inkscape:window-height="1057"
     inkscape:window-x="2152"
     inkscape:window-y="-8"
     inkscape:window-maximized="1"
     inkscape:current-layer="svg6" />
  <circle
     cx="100"
     cy="100"
     fill="#ea3e4f"
     id="circle2"
     style="stroke:#ffffff;stroke-width:7.51648;stroke-dasharray:none;stroke-opacity:1"
     r="96.24176" />
  <path
     d="M132.874 75.2073C135.278 72.7909 135.278 68.8732 132.874 66.4568C130.47 64.0404 126.572 64.0404 124.168 66.4568L99.5001 91.2497L74.8324 66.4568C72.4283 64.0404 68.5304 64.0404 66.1262 66.4568C63.722 68.8732 63.722 72.7909 66.1262 75.2073L90.7939 100L66.1261 124.793C63.722 127.209 63.722 131.127 66.1261 133.544C68.5303 135.96 72.4282 135.96 74.8324 133.544L99.5001 108.751L124.168 133.544C126.572 135.96 130.47 135.96 132.874 133.544C135.278 131.127 135.278 127.21 132.874 124.793L108.206 100L132.874 75.2073Z"
     fill="white"
     id="path4" />
</svg>
