<?xml version="1.0" encoding="UTF-8" standalone="no"?>
<svg
   width="244"
   height="244"
   viewBox="0 0 244 244"
   fill="none"
   version="1.1"
   id="svg6"
   sodipodi:docname="Button Start.svg"
   inkscape:version="1.2 (dc2aedaf03, 2022-05-15)"
   xmlns:inkscape="http://www.inkscape.org/namespaces/inkscape"
   xmlns:sodipodi="http://sodipodi.sourceforge.net/DTD/sodipodi-0.dtd"
   xmlns="http://www.w3.org/2000/svg"
   xmlns:svg="http://www.w3.org/2000/svg">
  <defs
     id="defs10" />
  <sodipodi:namedview
     id="namedview8"
     pagecolor="#ffffff"
     bordercolor="#000000"
     borderopacity="0.25"
     inkscape:showpageshadow="2"
     inkscape:pageopacity="0.0"
     inkscape:pagecheckerboard="0"
     inkscape:deskcolor="#d1d1d1"
     showgrid="false"
     inkscape:zoom="1.7971311"
     inkscape:cx="-23.648803"
     inkscape:cy="74.563284"
     inkscape:window-width="1920"
     inkscape:window-height="1057"
     inkscape:window-x="2152"
     inkscape:window-y="-8"
     inkscape:window-maximized="1"
     inkscape:current-layer="svg6" />
  <ellipse
     cx="122.37913"
     cy="121.66135"
     fill="#0f8a4c"
     id="circle2"
     style="stroke:#ffffff;stroke-width:7.53675;stroke-dasharray:none;stroke-opacity:1"
     rx="117.73162"
     ry="117.73163" />
  <path
     fill-rule="evenodd"
     clip-rule="evenodd"
     d="M167.413 112.524C173.612 117.32 173.612 126.68 167.413 131.476C148.678 145.973 127.758 157.399 105.436 165.327L101.358 166.775C93.5563 169.546 85.3156 164.267 84.2594 156.214C81.3085 133.712 81.3085 110.288 84.2595 87.7862C85.3156 79.7328 93.5563 74.4543 101.358 77.2252L105.436 78.6735C127.758 86.6015 148.678 98.0275 167.413 112.524ZM161.676 124.062C163.024 123.018 163.024 120.982 161.676 119.938C143.727 106.05 123.684 95.1034 102.298 87.5079L98.2204 86.0595C96.1895 85.3382 93.8555 86.7129 93.5548 89.0053C90.71 110.697 90.71 133.303 93.5548 154.995C93.8555 157.287 96.1895 158.662 98.2204 157.941L102.298 156.492C123.684 148.897 143.727 137.95 161.676 124.062Z"
     fill="white"
     id="path4" />
</svg>
