<?xml version="1.0" encoding="UTF-8" standalone="no"?>
<svg
   height="50"
   width="50"
   version="1.1"
   id="svg4"
   sodipodi:docname="Full Star.svg"
   inkscape:version="1.1.2 (b8e25be833, 2022-02-05)"
   xmlns:inkscape="http://www.inkscape.org/namespaces/inkscape"
   xmlns:sodipodi="http://sodipodi.sourceforge.net/DTD/sodipodi-0.dtd"
   xmlns="http://www.w3.org/2000/svg"
   xmlns:svg="http://www.w3.org/2000/svg">
  <defs
     id="defs8" />
  <sodipodi:namedview
     id="namedview6"
     pagecolor="#ffffff"
     bordercolor="#666666"
     borderopacity="1.0"
     inkscape:pageshadow="2"
     inkscape:pageopacity="0.0"
     inkscape:pagecheckerboard="0"
     showgrid="false"
     inkscape:zoom="4"
     inkscape:cx="16.625"
     inkscape:cy="14.75"
     inkscape:window-width="1920"
     inkscape:window-height="1057"
     inkscape:window-x="-8"
     inkscape:window-y="-8"
     inkscape:window-maximized="1"
     inkscape:current-layer="svg4" />
  <path
     d="m 16.35,41.568519 q -0.85,0.7 -1.775,0.05 -0.925,-0.65 -0.575,-1.7 l 3.3,-10.75 -8.5,-6.1 q -0.9,-0.65 -0.575,-1.675 0.325,-1.025 1.425,-1.025 H 20.2 L 23.55,9.1685185 q 0.15,-0.55 0.575,-0.825 0.425,-0.275 0.875,-0.275 0.45,0 0.875,0.275 0.425,0.275 0.575,0.825 L 29.8,20.368519 h 10.55 q 1.1,0 1.425,1.025 0.325,1.025 -0.575,1.675 l -8.5,6.1 3.3,10.75 q 0.35,1.05 -0.575,1.7 -0.925,0.65 -1.775,-0.05 l -8.65,-6.6 z"
     id="path2"
     style="fill:#ffff00" />
</svg>
