<?xml version="1.0" encoding="UTF-8" standalone="no"?>
<svg
   height="150"
   width="150"
   version="1.1"
   id="svg4"
   sodipodi:docname="Phone On.svg"
   inkscape:version="1.1.2 (b8e25be833, 2022-02-05)"
   xmlns:inkscape="http://www.inkscape.org/namespaces/inkscape"
   xmlns:sodipodi="http://sodipodi.sourceforge.net/DTD/sodipodi-0.dtd"
   xmlns="http://www.w3.org/2000/svg"
   xmlns:svg="http://www.w3.org/2000/svg">
  <defs
     id="defs8" />
  <sodipodi:namedview
     id="namedview6"
     pagecolor="#ffffff"
     bordercolor="#666666"
     borderopacity="1.0"
     inkscape:pageshadow="2"
     inkscape:pageopacity="0.0"
     inkscape:pagecheckerboard="0"
     showgrid="false"
     inkscape:zoom="3.2077605"
     inkscape:cx="51.593628"
     inkscape:cy="61.725307"
     inkscape:window-width="1920"
     inkscape:window-height="1057"
     inkscape:window-x="-8"
     inkscape:window-y="-8"
     inkscape:window-maximized="1"
     inkscape:current-layer="svg4" />
  <path
     d="m 42,141 q -3.6,0 -6.3,-2.7 Q 33,135.6 33,132 V 18 Q 33,14.4 35.7,11.7 38.4,9 42,9 h 66 q 3.6,0 6.3,2.7 2.7,2.7 2.7,6.3 v 114 q 0,3.6 -2.7,6.3 -2.7,2.7 -6.3,2.7 z m 0,-22.5 h 66 v -87 H 42 Z m 0,9 v 4.5 h 66 v -4.5 z m 0,-105 h 66 V 18 H 42 Z M 42,18 v 4.5 z m 0,114 v -4.5 z"
     id="path2"
     style="stroke-width:2.99999;fill:#00ff00" />
</svg>
