<?xml version="1.0" encoding="UTF-8" standalone="no"?>
<svg
   height="150"
   width="150"
   version="1.1"
   id="svg4"
   sodipodi:docname="x.svg"
   inkscape:version="1.1.2 (b8e25be833, 2022-02-05)"
   xmlns:inkscape="http://www.inkscape.org/namespaces/inkscape"
   xmlns:sodipodi="http://sodipodi.sourceforge.net/DTD/sodipodi-0.dtd"
   xmlns="http://www.w3.org/2000/svg"
   xmlns:svg="http://www.w3.org/2000/svg">
  <defs
     id="defs8" />
  <sodipodi:namedview
     id="namedview6"
     pagecolor="#ffffff"
     bordercolor="#666666"
     borderopacity="1.0"
     inkscape:pageshadow="2"
     inkscape:pageopacity="0.0"
     inkscape:pagecheckerboard="0"
     showgrid="false"
     width="150px"
     inkscape:zoom="4.5364583"
     inkscape:cx="52.353617"
     inkscape:cy="80.238807"
     inkscape:window-width="1920"
     inkscape:window-height="1057"
     inkscape:window-x="-8"
     inkscape:window-y="-8"
     inkscape:window-maximized="1"
     inkscape:current-layer="svg4"
     inkscape:showpageshadow="2"
     inkscape:deskcolor="#d1d1d1" />
  <circle
     cx="75"
     cy="75"
     fill="none"
     id="circle2"
     style="fill:none;fill-opacity:1;stroke:#ffffff;stroke-width:5.69159;stroke-dasharray:none;stroke-opacity:1"
     r="72.154205" />
  <path
     fill-rule="evenodd"
     clip-rule="evenodd"
     d="m 105.27781,67.89087 c 4.6506,3.598039 4.6506,10.620067 0,14.218106 C 91.2225,92.984867 75.527968,101.55684 58.781631,107.50456 l -3.059383,1.08631 c -5.852966,2.07886 -12.035276,-1.88154 -12.827655,-7.92303 -2.213814,-16.881379 -2.213814,-34.454455 7.5e-5,-51.33568 0.792304,-6.041795 6.974614,-10.001813 12.82758,-7.923038 l 3.059383,1.086539 C 75.527968,48.443378 91.2225,57.015354 105.27781,67.89087 Z m -4.30399,8.656 c 1.01129,-0.783226 1.01129,-2.310668 0,-3.093894 C 87.508177,63.033967 72.471585,54.821645 56.427451,49.123375 l -3.059083,-1.086614 c -1.523615,-0.541131 -3.274621,0.490192 -3.500211,2.209988 -2.134216,16.273475 -2.134216,33.232873 0,49.506573 0.22559,1.719498 1.976596,2.751048 3.500211,2.210138 l 3.059083,-1.08706 C 72.471585,95.178501 87.508177,86.965879 100.97382,76.54687 Z"
     fill="#ffffff"
     id="path4"
     style="stroke-width:0.750217" />
</svg>
