<?xml version="1.0" encoding="UTF-8" standalone="no"?>
<svg
   height="150"
   width="150"
   version="1.1"
   id="svg4"
   sodipodi:docname="Button Right.svg"
   inkscape:version="1.2 (dc2aedaf03, 2022-05-15)"
   xmlns:inkscape="http://www.inkscape.org/namespaces/inkscape"
   xmlns:sodipodi="http://sodipodi.sourceforge.net/DTD/sodipodi-0.dtd"
   xmlns="http://www.w3.org/2000/svg"
   xmlns:svg="http://www.w3.org/2000/svg">
  <defs
     id="defs8" />
  <sodipodi:namedview
     id="namedview6"
     pagecolor="#ffffff"
     bordercolor="#666666"
     borderopacity="1.0"
     inkscape:pageshadow="2"
     inkscape:pageopacity="0.0"
     inkscape:pagecheckerboard="0"
     showgrid="false"
     width="150px"
     inkscape:zoom="4.5364583"
     inkscape:cx="52.243399"
     inkscape:cy="80.238807"
     inkscape:window-width="1920"
     inkscape:window-height="1017"
     inkscape:window-x="-8"
     inkscape:window-y="-8"
     inkscape:window-maximized="1"
     inkscape:current-layer="svg4"
     inkscape:showpageshadow="2"
     inkscape:deskcolor="#d1d1d1" />
  <path
     d="M 78.937501,98.437502 98.437502,78.937501 c 1.124999,-1.124999 1.687498,-2.437499 1.687498,-3.9375 0,-1.499999 -0.562499,-2.812499 -1.687498,-3.937499 L 78.750001,51.375001 c -0.999999,-1 -2.281249,-1.46875 -3.84375,-1.40625 -1.562499,0.0625 -2.843749,0.59375 -3.843749,1.59375 -1.125001,1.125 -1.687501,2.4375 -1.687501,3.9375 0,1.500001 0.5625,2.812501 1.687501,3.9375 l 9.9375,9.9375 H 52.312501 c -1.5,0 -2.78125,0.5625 -3.84375,1.687501 -1.0625,1.125 -1.59375,2.4375 -1.59375,3.937499 0,1.625001 0.53125,2.968751 1.59375,4.03125 1.0625,1.062501 2.40625,1.593751 4.031251,1.593751 h 28.5 l -10.125,10.125 c -1.000001,1 -1.468751,2.28125 -1.406251,3.84375 0.0625,1.5625 0.59375,2.84375 1.593751,3.84375 1.125,1.124999 2.4375,1.687498 3.937499,1.687498 1.500001,0 2.812501,-0.562499 3.9375,-1.687498 z"
     id="path2"
     style="fill:#ffffff;stroke-width:3.75"
     sodipodi:nodetypes="ssssssssscssssscsssss" />
  <circle
     cx="75"
     cy="75"
     fill="none"
     id="circle2"
     style="fill:none;fill-opacity:1;stroke:#ffffff;stroke-width:5.69159;stroke-dasharray:none;stroke-opacity:1"
     r="72.154205" />
</svg>
