<?xml version="1.0" encoding="UTF-8" standalone="no"?>
<svg
   height="150"
   width="150"
   version="1.1"
   id="svg4"
   sodipodi:docname="Button No.svg"
   inkscape:version="1.1.2 (b8e25be833, 2022-02-05)"
   xmlns:inkscape="http://www.inkscape.org/namespaces/inkscape"
   xmlns:sodipodi="http://sodipodi.sourceforge.net/DTD/sodipodi-0.dtd"
   xmlns="http://www.w3.org/2000/svg"
   xmlns:svg="http://www.w3.org/2000/svg">
  <defs
     id="defs8" />
  <sodipodi:namedview
     id="namedview6"
     pagecolor="#ffffff"
     bordercolor="#666666"
     borderopacity="1.0"
     inkscape:pageshadow="2"
     inkscape:pageopacity="0.0"
     inkscape:pagecheckerboard="0"
     showgrid="false"
     width="150px"
     inkscape:zoom="4.5364583"
     inkscape:cx="52.353617"
     inkscape:cy="80.238807"
     inkscape:window-width="1920"
     inkscape:window-height="1057"
     inkscape:window-x="-8"
     inkscape:window-y="-8"
     inkscape:window-maximized="1"
     inkscape:current-layer="svg4"
     inkscape:showpageshadow="2"
     inkscape:deskcolor="#d1d1d1" />
  <circle
     cx="75"
     cy="75"
     fill="none"
     id="circle2"
     style="fill:none;fill-opacity:1;stroke:#ffffff;stroke-width:5.69159;stroke-dasharray:none;stroke-opacity:1"
     r="72.154205" />
  <path
     d="m 108.37399,50.207048 c 2.404,-2.4164 2.404,-6.3341 0,-8.7505 -2.404,-2.4164 -6.302,-2.4164 -8.706001,0 l -24.667903,24.7929 -24.6677,-24.7929 c -2.4041,-2.4164 -6.302,-2.4164 -8.7062,0 -2.4042,2.4164 -2.4042,6.3341 0,8.7505 l 24.6677,24.792703 -24.6678,24.793 c -2.4041,2.415999 -2.4041,6.333999 0,8.750999 2.4042,2.416 6.3021,2.416 8.7063,0 l 24.6677,-24.792999 24.667903,24.792999 c 2.404001,2.416 6.302001,2.416 8.706001,0 2.404,-2.417 2.404,-6.334 0,-8.750999 l -24.668004,-24.793 z"
     fill="#ffffff"
     id="path4" />
</svg>
