<?xml version="1.0" encoding="UTF-8" standalone="no"?>
<svg
   height="250"
   viewBox="0 0 250 250"
   width="250"
   fill="#ffffff"
   version="1.1"
   id="svg10"
   sodipodi:docname="Happy Face.svg"
   inkscape:version="1.1.2 (b8e25be833, 2022-02-05)"
   inkscape:export-filename="C:\Users\foodassist\Downloads\Happy Face.png"
   inkscape:export-xdpi="96"
   inkscape:export-ydpi="96"
   xmlns:inkscape="http://www.inkscape.org/namespaces/inkscape"
   xmlns:sodipodi="http://sodipodi.sourceforge.net/DTD/sodipodi-0.dtd"
   xmlns="http://www.w3.org/2000/svg"
   xmlns:svg="http://www.w3.org/2000/svg">
  <defs
     id="defs14" />
  <sodipodi:namedview
     id="namedview12"
     pagecolor="#ffffff"
     bordercolor="#666666"
     borderopacity="1.0"
     inkscape:pageshadow="2"
     inkscape:pageopacity="0.0"
     inkscape:pagecheckerboard="0"
     showgrid="false"
     inkscape:zoom="1"
     inkscape:cx="11.5"
     inkscape:cy="92"
     inkscape:window-width="1920"
     inkscape:window-height="1057"
     inkscape:window-x="-8"
     inkscape:window-y="-8"
     inkscape:window-maximized="1"
     inkscape:current-layer="svg10" />
  <path
     d="M 0,0 H 250.00001 V 250.00001 H 0 Z"
     fill="none"
     id="path2"
     style="stroke-width:10.4167" />
  <circle
     cx="161.45834"
     cy="98.958336"
     id="circle4"
     r="15.625001"
     style="stroke-width:10.4167" />
  <circle
     cx="88.541672"
     cy="98.958336"
     id="circle6"
     r="15.625001"
     style="stroke-width:10.4167" />
  <path
     d="M 124.89584,20.833334 C 67.395835,20.833334 20.833334,67.500002 20.833334,125 c 0,57.50001 46.562501,104.16667 104.062506,104.16667 57.60417,0 104.27083,-46.66666 104.27083,-104.16667 0,-57.499998 -46.66666,-104.166666 -104.27083,-104.166666 z M 125,208.33334 c -46.041664,0 -83.333332,-37.29167 -83.333332,-83.33334 0,-46.041664 37.291668,-83.333332 83.333332,-83.333332 46.04167,0 83.33334,37.291668 83.33334,83.333332 0,46.04167 -37.29167,83.33334 -83.33334,83.33334 z m 45.93751,-63.64584 c -3.64584,-2.29166 -8.54167,-1.14583 -10.72917,2.5 C 152.5,159.37501 139.375,166.66667 125,166.66667 c -14.375,0 -27.499997,-7.29166 -35.20833,-19.58333 -2.291667,-3.64584 -7.083334,-4.79167 -10.729167,-2.5 -3.645834,2.29166 -4.791667,7.08333 -2.500001,10.72916 10.625001,16.97917 28.645838,26.97917 48.437498,26.97917 19.79167,0 37.81251,-10.10416 48.43751,-26.875 2.29166,-3.64583 1.14583,-8.4375 -2.5,-10.72917 z"
     id="path8"
     style="stroke-width:10.4167" />
</svg>
