<?xml version="1.0" encoding="UTF-8" standalone="no"?>
<svg
   height="250"
   viewBox="0 0 250 250"
   width="250"
   fill="#ffffff"
   version="1.1"
   id="svg12"
   sodipodi:docname="Neutral Face.svg"
   inkscape:version="1.1.2 (b8e25be833, 2022-02-05)"
   inkscape:export-filename="C:\Users\foodassist\Downloads\Neutral Face.png"
   inkscape:export-xdpi="96"
   inkscape:export-ydpi="96"
   xmlns:inkscape="http://www.inkscape.org/namespaces/inkscape"
   xmlns:sodipodi="http://sodipodi.sourceforge.net/DTD/sodipodi-0.dtd"
   xmlns="http://www.w3.org/2000/svg"
   xmlns:svg="http://www.w3.org/2000/svg">
  <defs
     id="defs16" />
  <sodipodi:namedview
     id="namedview14"
     pagecolor="#ffffff"
     bordercolor="#666666"
     borderopacity="1.0"
     inkscape:pageshadow="2"
     inkscape:pageopacity="0.0"
     inkscape:pagecheckerboard="0"
     showgrid="false"
     inkscape:zoom="1"
     inkscape:cx="11.5"
     inkscape:cy="17"
     inkscape:window-width="1920"
     inkscape:window-height="1057"
     inkscape:window-x="-8"
     inkscape:window-y="-8"
     inkscape:window-maximized="1"
     inkscape:current-layer="svg12" />
  <path
     d="M 0,0 H 250.00001 V 250.00001 H 0 Z"
     fill="none"
     id="path2"
     style="stroke-width:10.4167" />
  <path
     d="m 101.5625,161.45834 h 46.875 c 4.27084,0 7.81251,-3.54167 7.81251,-7.8125 0,-4.27084 -3.54167,-7.8125 -7.81251,-7.8125 h -46.875 c -4.27083,0 -7.812497,3.54166 -7.812497,7.8125 0,4.27083 3.541667,7.8125 7.812497,7.8125 z"
     id="path4"
     style="stroke-width:10.4167" />
  <circle
     cx="161.45834"
     cy="98.958336"
     r="15.625001"
     id="circle6"
     style="stroke-width:10.4167" />
  <circle
     cx="88.541672"
     cy="98.958336"
     r="15.625001"
     id="circle8"
     style="stroke-width:10.4167" />
  <path
     d="M 124.89584,20.833334 C 67.395835,20.833334 20.833334,67.500002 20.833334,125 c 0,57.50001 46.562501,104.16667 104.062506,104.16667 57.60417,0 104.27083,-46.66666 104.27083,-104.16667 0,-57.499998 -46.66666,-104.166666 -104.27083,-104.166666 z M 125,208.33334 c -46.041664,0 -83.333332,-37.29167 -83.333332,-83.33334 0,-46.041664 37.291668,-83.333332 83.333332,-83.333332 46.04167,0 83.33334,37.291668 83.33334,83.333332 0,46.04167 -37.29167,83.33334 -83.33334,83.33334 z"
     id="path10"
     style="stroke-width:10.4167" />
</svg>
