<?xml version="1.0" encoding="UTF-8" standalone="no"?>
<svg
   height="150"
   width="150"
   version="1.1"
   id="svg4"
   sodipodi:docname="Button Leftt.svg"
   inkscape:version="1.1.2 (b8e25be833, 2022-02-05)"
   xmlns:inkscape="http://www.inkscape.org/namespaces/inkscape"
   xmlns:sodipodi="http://sodipodi.sourceforge.net/DTD/sodipodi-0.dtd"
   xmlns="http://www.w3.org/2000/svg"
   xmlns:svg="http://www.w3.org/2000/svg">
  <defs
     id="defs8" />
  <sodipodi:namedview
     id="namedview6"
     pagecolor="#ffffff"
     bordercolor="#666666"
     borderopacity="1.0"
     inkscape:pageshadow="2"
     inkscape:pageopacity="0.0"
     inkscape:pagecheckerboard="0"
     showgrid="false"
     width="150px"
     inkscape:zoom="2.2682292"
     inkscape:cx="24.9093"
     inkscape:cy="51.141217"
     inkscape:window-width="1920"
     inkscape:window-height="1057"
     inkscape:window-x="-8"
     inkscape:window-y="-8"
     inkscape:window-maximized="1"
     inkscape:current-layer="svg4" />
  <path
     d="m 71.249999,98.625 q 1.5,1.5 3.843751,1.40625 2.34375,-0.0937 3.843749,-1.59375 1.6875,-1.6875 1.6875,-3.937501 0,-2.249999 -1.6875,-3.9375 L 69,80.624999 h 28.6875 q 2.25,0 3.84375,-1.6875 1.59375,-1.687499 1.59375,-3.9375 0,-2.4375 -1.59375,-4.031249 Q 99.9375,69.375 97.5,69.375 H 69 L 79.124999,59.249999 q 1.5,-1.5 1.406251,-3.84375 Q 80.43749,53.0625 78.937499,51.5625 77.25,49.875 74.999999,49.875 q -2.25,0 -3.9375,1.6875 L 51.5625,71.062499 q -1.6875,1.6875 -1.6875,3.9375 0,2.250001 1.6875,3.9375 z m 3.75,51.375 q -15.9375,0 -29.625,-5.71875 Q 31.687499,138.5625 21.5625,128.4375 11.4375,118.3125 5.71875,104.625 0,90.9375 0,74.999999 0,59.249999 5.71875,45.562499 11.4375,31.874999 21.5625,21.75 31.687499,11.624999 45.374999,5.8125 59.062499,0 74.999999,0 90.75,0 104.4375,5.8125 118.125,11.624999 128.25,21.75 138.375,31.874999 144.1875,45.562499 150,59.249999 150,74.999999 150,90.9375 144.1875,104.625 138.375,118.3125 128.25,128.4375 118.125,138.5625 104.4375,144.28125 90.75,150 74.999999,150 Z m 0,-11.25 q 27.187501,0 45.468751,-18.28125 Q 138.75,102.1875 138.75,74.999999 138.75,47.8125 120.46875,29.53125 102.1875,11.25 74.999999,11.25 47.8125,11.25 29.53125,29.53125 11.25,47.8125 11.25,74.999999 11.25,102.1875 29.53125,120.46875 47.8125,138.75 74.999999,138.75 Z m 0,-63.750001 z"
     id="path2"
     style="stroke-width:3.75001;stroke:none;fill:#ffffff" />
</svg>
