<?xml version="1.0" encoding="UTF-8" standalone="no"?>
<svg
   height="150"
   width="150"
   version="1.1"
   id="svg4"
   sodipodi:docname="Button Right.svg"
   inkscape:version="1.1.2 (b8e25be833, 2022-02-05)"
   xmlns:inkscape="http://www.inkscape.org/namespaces/inkscape"
   xmlns:sodipodi="http://sodipodi.sourceforge.net/DTD/sodipodi-0.dtd"
   xmlns="http://www.w3.org/2000/svg"
   xmlns:svg="http://www.w3.org/2000/svg">
  <defs
     id="defs8" />
  <sodipodi:namedview
     id="namedview6"
     pagecolor="#ffffff"
     bordercolor="#666666"
     borderopacity="1.0"
     inkscape:pageshadow="2"
     inkscape:pageopacity="0.0"
     inkscape:pagecheckerboard="0"
     showgrid="false"
     width="150px"
     inkscape:zoom="4.5364583"
     inkscape:cx="52.13318"
     inkscape:cy="68.555683"
     inkscape:window-width="1920"
     inkscape:window-height="1057"
     inkscape:window-x="-8"
     inkscape:window-y="-8"
     inkscape:window-maximized="1"
     inkscape:current-layer="svg4" />
  <path
     d="M 78.937501,98.437502 98.437502,78.937501 q 1.687498,-1.687499 1.687498,-3.9375 0,-2.249999 -1.687498,-3.937499 L 78.750001,51.375001 q -1.499999,-1.5 -3.84375,-1.40625 -2.343749,0.09375 -3.843749,1.59375 -1.687501,1.6875 -1.687501,3.9375 0,2.250001 1.687501,3.9375 l 9.9375,9.9375 H 52.312501 q -2.25,0 -3.84375,1.687501 -1.59375,1.6875 -1.59375,3.937499 0,2.437501 1.59375,4.03125 1.59375,1.593751 4.031251,1.593751 h 28.5 l -10.125,10.125 q -1.500001,1.5 -1.406251,3.84375 0.09375,2.34375 1.593751,3.84375 1.6875,1.687498 3.937499,1.687498 2.250001,0 3.9375,-1.687498 z M 75.000001,150 q -15.9375,0 -29.625,-5.71875 -13.6875,-5.71874 -23.8125,-15.84375 Q 11.437501,118.3125 5.7187502,104.625 0,90.937502 0,75.000001 q 0,-15.75 5.7187502,-29.4375 5.7187508,-13.6875 15.8437508,-23.8125 10.125,-10.125 23.8125,-15.9375009 Q 59.062501,0 75.000001,0 90.750002,0 104.4375,5.8125001 118.12501,11.625001 128.25,21.750001 q 10.125,10.125 15.93751,23.8125 Q 150,59.250001 150,75.000001 150,90.937502 144.18751,104.625 138.375,118.3125 128.25,128.4375 118.12501,138.56251 104.4375,144.28125 90.750002,150 75.000001,150 Z m 0,-11.25 q 27.187499,0 45.468759,-18.28124 Q 138.75,102.1875 138.75,75.000001 138.75,47.812501 120.46876,29.53125 102.1875,11.25 75.000001,11.25 47.812501,11.25 29.53125,29.53125 11.25,47.812501 11.25,75.000001 11.25,102.1875 29.53125,120.46876 47.812501,138.75 75.000001,138.75 Z m 0,-63.749999 z"
     id="path2"
     style="stroke-width:3.75;fill:#ffffff" />
</svg>
