<?xml version="1.0" encoding="UTF-8" standalone="no"?>
<svg
   height="200"
   width="200"
   version="1.1"
   id="svg274"
   sodipodi:docname="Button View.svg"
   inkscape:version="1.2 (dc2aedaf03, 2022-05-15)"
   xmlns:inkscape="http://www.inkscape.org/namespaces/inkscape"
   xmlns:sodipodi="http://sodipodi.sourceforge.net/DTD/sodipodi-0.dtd"
   xmlns="http://www.w3.org/2000/svg"
   xmlns:svg="http://www.w3.org/2000/svg">
  <defs
     id="defs278" />
  <sodipodi:namedview
     id="namedview276"
     pagecolor="#ffffff"
     bordercolor="#000000"
     borderopacity="0.25"
     inkscape:showpageshadow="2"
     inkscape:pageopacity="0.0"
     inkscape:pagecheckerboard="0"
     inkscape:deskcolor="#d1d1d1"
     showgrid="false"
     inkscape:zoom="2"
     inkscape:cx="125.75"
     inkscape:cy="150"
     inkscape:window-width="1920"
     inkscape:window-height="1017"
     inkscape:window-x="-8"
     inkscape:window-y="-8"
     inkscape:window-maximized="1"
     inkscape:current-layer="svg274" />
  <path
     d="m 142.58608,151.77781 10.08772,-10.08773 -23.7782,-23.7782 c 2.24171,-3.52269 3.923,-7.12545 5.04386,-10.80827 1.12086,-3.68282 1.68129,-7.605823 1.68129,-11.769008 0,-11.368702 -3.88297,-20.936025 -11.64892,-28.701969 -7.76595,-7.765945 -17.25321,-11.648917 -28.461785,-11.648917 -11.208579,0 -20.855964,3.882972 -28.942153,11.648917 -8.08619,7.765944 -12.129285,17.333267 -12.129285,28.701969 0,11.528828 4.043095,21.216238 12.129285,29.062248 8.086189,7.84601 17.733574,11.76901 28.942153,11.76901 4.32331,0 8.446465,-0.64049 12.369465,-1.92148 3.92301,-1.28098 7.5658,-3.36257 10.92837,-6.24478 z M 95.510045,121.75482 c -7.365638,0 -13.650449,-2.4819 -18.854432,-7.44569 -5.203983,-4.9638 -7.805975,-11.28864 -7.805975,-18.974528 0,-7.525761 2.601992,-13.73051 7.805975,-18.614248 5.203983,-4.883738 11.488794,-7.325607 18.854432,-7.325607 7.365635,0 13.490325,2.441869 18.374065,7.325607 4.88374,4.883738 7.32561,11.088487 7.32561,18.614248 0,7.685888 -2.44187,14.010728 -7.32561,18.974528 -4.88374,4.96379 -11.00843,7.44569 -18.374065,7.44569 z M 18.411,177.71766 c -3.842942,0 -7.205485,-1.4411 -10.0876908,-4.32331 C 5.4411031,170.51214 4,167.14994 4,163.307 V 38.411 C 4,34.568058 5.4411031,31.205515 8.3233092,28.323309 11.205515,25.441103 14.568058,24 18.411,24 h 163.325 c 4.00306,0 7.40571,1.441103 10.20786,4.323309 2.80215,2.882206 4.20322,6.244749 4.20322,10.087691 v 124.896 c 0,3.84294 -1.40107,7.20514 -4.20322,10.08735 -2.80215,2.88221 -6.2048,4.32331 -10.20786,4.32331 z m 167.32505,-10.41103 c 1.41413,-1.41413 2,-3.99963 2,-3.99963 V 99.858831 L 187.736,38.411 c 0,0 -0.58575,-2.585757 -1.99995,-3.999969 -1.41422,-1.414231 -4.00005,-2 -4.00005,-2 H 100.07354 18.411 c 0,0 -2.585763,0.585794 -3.999969,2 -1.414206,1.414206 -2,3.999969 -2,3.999969 V 99.858831 163.307 c 0,0 0.585874,2.5855 2,3.99963 1.414206,1.41421 3.999969,2 3.999969,2 h 81.66254 81.66246 c 0,0 2.58582,-0.58577 4.00005,-2 z"
     id="path272"
     style="fill:#ffffff;stroke-width:4.80368"
     sodipodi:nodetypes="cccsssssssssccssssssssssssssssssssssscccscccscccscccs" />
</svg>
