<?xml version="1.0" encoding="UTF-8" standalone="no"?>
<svg
   height="150"
   width="150"
   version="1.1"
   id="svg4"
   sodipodi:docname="Left Hand.svg"
   inkscape:version="1.2 (dc2aedaf03, 2022-05-15)"
   xmlns:inkscape="http://www.inkscape.org/namespaces/inkscape"
   xmlns:sodipodi="http://sodipodi.sourceforge.net/DTD/sodipodi-0.dtd"
   xmlns="http://www.w3.org/2000/svg"
   xmlns:svg="http://www.w3.org/2000/svg">
  <defs
     id="defs8" />
  <sodipodi:namedview
     id="namedview6"
     pagecolor="#ffffff"
     bordercolor="#000000"
     borderopacity="0.25"
     inkscape:showpageshadow="2"
     inkscape:pageopacity="0.0"
     inkscape:pagecheckerboard="0"
     inkscape:deskcolor="#d1d1d1"
     showgrid="false"
     inkscape:zoom="3.0825436"
     inkscape:cx="4.5417038"
     inkscape:cy="69.098779"
     inkscape:window-width="1920"
     inkscape:window-height="1017"
     inkscape:window-x="-8"
     inkscape:window-y="-8"
     inkscape:window-maximized="1"
     inkscape:current-layer="svg4" />
  <path
     d="m 67.187499,150 q 17.03125,0 29.375,-8.75 12.343751,-8.75 17.812501,-23.28125 l 15.9375,-41.718748 q 0.46875,-1.250001 0.70312,-2.578125 0.23438,-1.328127 0.23438,-2.734375 0,-4.0625 -3.125,-7.187501 -3.125,-3.125 -7.1875,-3.125 -0.9375,0 -1.79687,0.07811 -0.85938,0.07813 -1.64063,0.390626 l -4.6875,1.25 q -3.125,0.78125 -4.92188,2.109375 -1.79687,1.328124 -3.98437,4.765625 V 25.781246 q 0,-5.468751 -3.906251,-9.375 -3.906249,-3.906251 -9.375,-3.906251 -1.875,0 -3.437501,0.546876 -1.562499,0.546874 -2.812498,1.484375 v -1.250001 q 0,-5.4687496 -3.984377,-9.3749997 Q 76.406248,0 70.937499,0 q -5.000001,0 -8.59375,3.28125 -3.59375,3.2812501 -4.375,7.65625 -0.625,-0.78125 -2.65625,-1.1718749 -2.031251,-0.3906249 -3.750001,-0.3906249 -5.937498,0 -9.609378,4.4531248 -3.67187,4.453126 -3.67187,9.921875 v 6.093751 q -1.09375,-0.9375 -2.8125,-1.328126 -1.71875,-0.390624 -3.4375,-0.390624 -5.46875,0 -9.375,3.90625 Q 18.75,35.9375 18.75,41.406251 V 101.5625 q 0,21.40625 13.51562,34.92187 Q 45.78125,150 67.187499,150 Z m 0,-9.375 Q 49.6875,140.625 38.90625,129.76563 28.125,118.90625 28.125,101.5625 V 41.406251 q 0,-1.71875 1.09375,-2.8125 1.09375,-1.09375 2.8125,-1.09375 1.71875,0 2.8125,1.09375 1.09375,1.09375 1.09375,2.8125 v 27.812501 q 0,2.343749 1.71875,4.062499 1.71875,1.71875 4.0625,1.71875 2.5,0 4.21875,-1.71875 1.71875,-1.71875 1.71875,-4.21875 V 22.65625 q 0,-1.71875 1.09375,-2.8125 1.09375,-1.093749 2.812498,-1.093749 1.71875,0 2.8125,1.093749 1.09375,1.09375 1.09375,2.8125 v 46.562502 q 0,2.343749 1.71875,4.062499 1.718752,1.71875 4.062501,1.71875 2.5,0 4.21875,-1.71875 1.71875,-1.71875 1.71875,-4.21875 V 13.28125 q 0,-1.71875 1.09375,-2.8125 1.093749,-1.0937498 2.812499,-1.0937498 1.71875,0 2.812502,1.0937498 Q 75,11.5625 75,13.28125 v 55.937502 q 0,2.343749 1.71875,4.062499 1.718749,1.71875 4.062499,1.71875 2.5,0 4.21875,-1.71875 1.71875,-1.71875 1.71875,-4.21875 V 25.78125 q 0,-1.71875 1.09375,-2.812499 1.093751,-1.09375 2.8125,-1.09375 1.71875,0 2.8125,1.09375 1.093751,1.093749 1.093751,2.812499 v 61.718751 q 0,2.031251 1.328124,3.359375 1.328125,1.328126 3.359375,1.328126 h 1.250001 q 1.5625,0 2.57813,-0.781249 1.01562,-0.781251 1.64062,-2.187502 l 4.6875,-11.71875 q 1.71875,-4.062499 4.0625,-5.234375 2.34375,-1.171875 6.25,-2.109375 1.5625,-0.312499 2.10937,0.3125 0.54688,0.625 -0.0781,2.03125 l -16.25,42.187499 q -4.53124,11.71875 -14.218746,18.82813 -9.6875,7.10937 -24.062499,7.10937 z"
     id="path2"
     style="fill:#ffff00;stroke-width:3.125" />
</svg>
