<?xml version="1.0" encoding="UTF-8" standalone="no"?>
<svg
   height="150"
   width="150"
   version="1.1"
   id="svg4"
   sodipodi:docname="SCORE Bar.svg"
   inkscape:version="1.1.2 (b8e25be833, 2022-02-05)"
   xmlns:inkscape="http://www.inkscape.org/namespaces/inkscape"
   xmlns:sodipodi="http://sodipodi.sourceforge.net/DTD/sodipodi-0.dtd"
   xmlns="http://www.w3.org/2000/svg"
   xmlns:svg="http://www.w3.org/2000/svg">
  <defs
     id="defs8" />
  <sodipodi:namedview
     id="namedview6"
     pagecolor="#ffffff"
     bordercolor="#666666"
     borderopacity="1.0"
     inkscape:pageshadow="2"
     inkscape:pageopacity="0.0"
     inkscape:pagecheckerboard="0"
     showgrid="false"
     width="150px"
     inkscape:zoom="2.8284271"
     inkscape:cx="18.915107"
     inkscape:cy="64.700271"
     inkscape:window-width="1920"
     inkscape:window-height="1057"
     inkscape:window-x="-8"
     inkscape:window-y="-8"
     inkscape:window-maximized="1"
     inkscape:current-layer="svg4" />
  <path
     d="m 111.32301,123 c -2.95474,0 -5.4522,-0.725 -7.49238,-2.175 -2.04018,-1.45 -3.06027,-3.225 -3.06027,-5.325 v -81 c 0,-2.1 1.02009,-3.875 3.06027,-5.325 2.04018,-1.45 4.53764,-2.175 7.49238,-2.175 2.95474,0 5.4522,0.725 7.49238,2.175 2.04018,1.45 3.06027,3.225 3.06027,5.325 v 81 c 0,2.1 -1.02009,3.875 -3.06027,5.325 -2.04018,1.45 -4.53764,2.175 -7.49238,2.175 z"
     id="path2"
     style="fill:#55d400;stroke-width:3.55854"
     sodipodi:nodetypes="sssssssssss" />
  <path
     d="m 74.999999,123 c -2.954741,0 -5.452202,-0.725 -7.49238,-2.175 -2.040179,-1.45 -3.06027,-3.225 -3.06027,-5.325 v -51 c 0,-2.1 1.02009,-3.875 3.06027,-5.325 2.040178,-1.45 4.537639,-2.175 7.49238,-2.175 2.954742,0 5.452203,0.725 7.492379,2.175 2.04018,1.45 3.06027,3.225 3.06027,5.325 v 51 c 0,2.1 -1.02009,3.875 -3.06027,5.325 -2.040176,1.45 -4.537637,2.175 -7.492379,2.175 z"
     id="path2-5"
     style="fill:#99ff55;stroke-width:3.55854"
     sodipodi:nodetypes="sssssssssss" />
  <path
     d="m 38.888038,123 c -1.547722,0 -2.989916,-0.2 -4.326585,-0.6 -1.33667,-0.4 -2.462286,-0.925 -3.376849,-1.575 -0.914563,-0.65 -1.653249,-1.45 -2.216057,-2.4 -0.562808,-0.95 -0.844212,-1.925 -0.844212,-2.925 V 94.499998 c 0,-2.1 1.02009,-3.875 3.060269,-5.325 2.040179,-1.45 4.537639,-2.175 7.492381,-2.175 2.954743,0 5.452203,0.725 7.492382,2.175 2.04018,1.45 3.060268,3.225 3.060268,5.325 V 115.5 c 0,1 -0.281404,1.975 -0.844211,2.925 -0.562808,0.95 -1.301494,1.75 -2.216057,2.4 -0.914563,0.65 -2.005004,1.175 -3.271321,1.575 -1.266318,0.4 -2.602987,0.6 -4.010008,0.6 z"
     id="path2-5-0"
     style="fill:#ccffaa;stroke-width:3.55854"
     sodipodi:nodetypes="sssssssssssssss" />
</svg>
