<?xml version="1.0" encoding="UTF-8" standalone="no"?>
<svg
   height="250"
   viewBox="0 0 250 250"
   width="250"
   fill="#ffffff"
   version="1.1"
   id="svg10"
   sodipodi:docname="Unhappy Face.svg"
   inkscape:version="1.1.2 (b8e25be833, 2022-02-05)"
   xmlns:inkscape="http://www.inkscape.org/namespaces/inkscape"
   xmlns:sodipodi="http://sodipodi.sourceforge.net/DTD/sodipodi-0.dtd"
   xmlns="http://www.w3.org/2000/svg"
   xmlns:svg="http://www.w3.org/2000/svg">
  <defs
     id="defs14" />
  <sodipodi:namedview
     id="namedview12"
     pagecolor="#ffffff"
     bordercolor="#666666"
     borderopacity="1.0"
     inkscape:pageshadow="2"
     inkscape:pageopacity="0.0"
     inkscape:pagecheckerboard="0"
     showgrid="false"
     inkscape:zoom="29.958333"
     inkscape:cx="12"
     inkscape:cy="11.98331"
     inkscape:window-width="1920"
     inkscape:window-height="1057"
     inkscape:window-x="-8"
     inkscape:window-y="-8"
     inkscape:window-maximized="1"
     inkscape:current-layer="svg10" />
  <path
     d="M 0,0 H 250.00001 V 250.00001 H 0 Z"
     fill="none"
     id="path2"
     style="stroke-width:10.4167" />
  <circle
     cx="161.45834"
     cy="98.958336"
     r="15.625001"
     id="circle4"
     style="stroke-width:10.4167" />
  <circle
     cx="88.541672"
     cy="98.958336"
     r="15.625001"
     id="circle6"
     style="stroke-width:10.4167" />
  <path
     d="M 124.89584,20.833334 C 67.395835,20.833334 20.833334,67.500002 20.833334,125 c 0,57.50001 46.562501,104.16667 104.062506,104.16667 57.60417,0 104.27083,-46.66666 104.27083,-104.16667 0,-57.499998 -46.66666,-104.166666 -104.27083,-104.166666 z M 125,208.33334 c -46.041664,0 -83.333332,-37.29167 -83.333332,-83.33334 0,-46.041664 37.291668,-83.333332 83.333332,-83.333332 46.04167,0 83.33334,37.291668 83.33334,83.333332 0,46.04167 -37.29167,83.33334 -83.33334,83.33334 z m 0,-62.5 c -19.79166,0 -37.812497,10.10416 -48.437498,26.875 -2.291666,3.64583 -1.145833,8.4375 2.500001,10.72917 3.645833,2.29166 8.4375,1.14583 10.729167,-2.5 C 97.500003,168.64584 110.625,161.35417 125,161.35417 c 14.375,0 27.5,7.29167 35.20834,19.58334 1.45833,2.39583 4.0625,3.64583 6.66667,3.64583 1.45833,0 2.8125,-0.41667 4.16666,-1.14583 3.64584,-2.29167 4.79167,-7.08334 2.5,-10.72917 -10.72916,-16.875 -28.75,-26.875 -48.54167,-26.875 z"
     id="path8"
     style="stroke-width:10.4167" />
</svg>
