<?xml version="1.0" encoding="UTF-8" standalone="no"?>
<!-- Created with Inkscape (http://www.inkscape.org/) -->

<svg
   width="250"
   height="250"
   viewBox="0 0 66.145832 66.145835"
   version="1.1"
   id="svg5"
   inkscape:version="1.2 (dc2aedaf03, 2022-05-15)"
   sodipodi:docname="Sub Step 2.svg"
   xmlns:inkscape="http://www.inkscape.org/namespaces/inkscape"
   xmlns:sodipodi="http://sodipodi.sourceforge.net/DTD/sodipodi-0.dtd"
   xmlns="http://www.w3.org/2000/svg"
   xmlns:svg="http://www.w3.org/2000/svg">
  <sodipodi:namedview
     id="namedview7"
     pagecolor="#ffffff"
     bordercolor="#666666"
     borderopacity="1.0"
     inkscape:pageshadow="2"
     inkscape:pageopacity="0.0"
     inkscape:pagecheckerboard="0"
     inkscape:document-units="px"
     showgrid="false"
     units="px"
     inkscape:snap-center="false"
     inkscape:snap-text-baseline="false"
     inkscape:snap-to-guides="true"
     inkscape:zoom="1.5518659"
     inkscape:cx="-198.79295"
     inkscape:cy="117.92256"
     inkscape:window-width="1920"
     inkscape:window-height="1057"
     inkscape:window-x="2152"
     inkscape:window-y="-8"
     inkscape:window-maximized="1"
     inkscape:current-layer="layer1"
     inkscape:showpageshadow="2"
     inkscape:deskcolor="#d1d1d1" />
  <defs
     id="defs2">
    <rect
       x="-133.38781"
       y="114.05625"
       width="15.465254"
       height="57.994702"
       id="rect1061" />
    <rect
       x="-156.58569"
       y="105.67923"
       width="144.98675"
       height="191.38252"
       id="rect987" />
    <rect
       x="82.159162"
       y="77.004077"
       width="170.43999"
       height="187.8384"
       id="rect48878" />
    <rect
       x="105.71066"
       y="100.24287"
       width="145.6228"
       height="219.33772"
       id="rect6386" />
    <marker
       style="overflow:visible"
       id="Arrow2Lend"
       refX="0"
       refY="0"
       orient="auto"
       inkscape:stockid="Arrow2Lend"
       inkscape:isstock="true">
      <path
         transform="matrix(-1.1,0,0,-1.1,-1.1,0)"
         d="M 8.7185878,4.0337352 -2.2072895,0.01601326 8.7185884,-4.0017078 c -1.7454984,2.3720609 -1.7354408,5.6174519 -6e-7,8.035443 z"
         style="fill:context-stroke;fill-rule:evenodd;stroke:context-stroke;stroke-width:0.625;stroke-linejoin:round"
         id="path3357" />
    </marker>
    <marker
       style="overflow:visible"
       id="Arrow2Mstart"
       refX="0"
       refY="0"
       orient="auto"
       inkscape:stockid="Arrow2Mstart"
       inkscape:isstock="true">
      <path
         transform="scale(0.6)"
         d="M 8.7185878,4.0337352 -2.2072895,0.01601326 8.7185884,-4.0017078 c -1.7454984,2.3720609 -1.7354408,5.6174519 -6e-7,8.035443 z"
         style="fill:context-stroke;fill-rule:evenodd;stroke:context-stroke;stroke-width:0.625;stroke-linejoin:round"
         id="path3360" />
    </marker>
    <marker
       style="overflow:visible"
       id="Arrow1Lstart"
       refX="0"
       refY="0"
       orient="auto"
       inkscape:stockid="Arrow1Lstart"
       inkscape:isstock="true">
      <path
         transform="matrix(0.8,0,0,0.8,10,0)"
         style="fill:context-stroke;fill-rule:evenodd;stroke:context-stroke;stroke-width:1pt"
         d="M 0,0 5,-5 -12.5,0 5,5 Z"
         id="path3336" />
    </marker>
    <rect
       x="-156.58569"
       y="105.67923"
       width="144.98676"
       height="191.38252"
       id="rect987-9" />
    <rect
       x="-156.58569"
       y="105.67923"
       width="144.98676"
       height="191.38252"
       id="rect987-0" />
  </defs>
  <g
     inkscape:label="Layer 1"
     inkscape:groupmode="layer"
     id="layer1"
     style="display:inline">
    <g
       aria-label="2"
       transform="matrix(0.20545882,0,0,0.2451452,54.547858,-14.875045)"
       id="text985-7"
       style="font-size:162.667px;-inkscape-font-specification:'sans-serif, Normal';white-space:pre;shape-inside:url(#rect987-0);shape-padding:2.57754;display:inline;fill:#ffffff;stroke:#ffffff"
       inkscape:label="2">
      <title
         id="title424">Number 2</title>
      <path
         d="m -61.157358,256.6619 h -80.062672 v -16.60029 q 8.33987,-7.14846 16.67973,-14.29691 8.41929,-7.14845 15.64717,-14.21748 15.250027,-14.77346 20.889362,-23.43103 5.639335,-8.737 5.639335,-18.82426 0,-9.21356 -6.115898,-14.37634 -6.036471,-5.24219 -16.918009,-5.24219 -7.22788,0 -15.64716,2.54167 -8.41929,2.54167 -16.44144,7.78387 h -0.79428 v -16.67972 q 5.63934,-2.77996 15.01175,-5.08335 9.45185,-2.30339 18.26827,-2.30339 18.188841,0 28.514383,8.81643 10.325543,8.73699 10.325543,23.74874 0,6.75132 -1.7474,12.62894 -1.667972,5.79819 -5.003917,11.04039 -3.097662,4.92448 -7.307307,9.69012 -4.130216,4.76563 -10.08726,10.56382 -8.498716,8.33986 -17.553422,16.20316 -9.05471,7.78387 -16.918,14.45576 h 63.621222 z"
         id="path471" />
    </g>
    <circle
       style="display:inline;fill:none;fill-opacity:1;stroke:#ffffff;stroke-width:2.06759;stroke-linecap:square;stroke-linejoin:round;stroke-miterlimit:4;stroke-dasharray:none;stroke-dashoffset:0;stroke-opacity:1;paint-order:normal"
       id="path263"
       cx="33.072918"
       cy="33.072918"
       r="32.03912"
       inkscape:label="path263" />
  </g>
</svg>
