<?xml version="1.0" encoding="UTF-8" standalone="no"?>
<svg
   height="200"
   width="200"
   version="1.1"
   id="svg274"
   sodipodi:docname="Button View.svg"
   inkscape:version="1.2 (dc2aedaf03, 2022-05-15)"
   xmlns:inkscape="http://www.inkscape.org/namespaces/inkscape"
   xmlns:sodipodi="http://sodipodi.sourceforge.net/DTD/sodipodi-0.dtd"
   xmlns="http://www.w3.org/2000/svg"
   xmlns:svg="http://www.w3.org/2000/svg">
  <defs
     id="defs278" />
  <sodipodi:namedview
     id="namedview276"
     pagecolor="#ffffff"
     bordercolor="#000000"
     borderopacity="0.25"
     inkscape:showpageshadow="2"
     inkscape:pageopacity="0.0"
     inkscape:pagecheckerboard="0"
     inkscape:deskcolor="#d1d1d1"
     showgrid="false"
     inkscape:zoom="4"
     inkscape:cx="122.625"
     inkscape:cy="100"
     inkscape:window-width="1920"
     inkscape:window-height="1017"
     inkscape:window-x="-8"
     inkscape:window-y="-8"
     inkscape:window-maximized="1"
     inkscape:current-layer="svg274" />
  <path
     d="m 142.58608,149.77781 c 2.3777,0 5.04386,-3.04387 5.04386,-3.04387 0,0 3.04386,-2.66616 3.04386,-5.04386 0,-2.33088 -2.94455,-4.94455 -2.94455,-4.94455 l -8.94455,-8.94455 c -10.82212,-10.59434 -8.94099,-8.64661 -4.84524,-20.69737 1.12086,-3.68282 1.68129,-7.605823 1.68129,-11.769008 0,-11.368702 -3.88297,-20.936025 -11.64892,-28.701969 -7.76595,-7.765945 -17.25321,-11.648917 -28.461785,-11.648917 -11.208579,0 -20.855964,3.882972 -28.942153,11.648917 -8.08619,7.765944 -12.129285,17.333267 -12.129285,28.701969 0,11.528828 4.043095,21.216238 12.129285,29.062248 8.086189,7.84601 17.733574,11.76901 28.942153,11.76901 4.32331,0 8.446465,-0.64049 12.369465,-1.92148 11.41442,-5.45185 9.39419,-7.5138 20.81747,3.64432 l 8.94455,8.94455 c 0,0 2.61367,2.94456 4.94455,2.94456 z M 95.510045,121.75482 c -7.365638,0 -13.650449,-2.4819 -18.854432,-7.44569 -5.203983,-4.9638 -7.805975,-11.28864 -7.805975,-18.974528 0,-7.525761 2.601992,-13.73051 7.805975,-18.614248 5.203983,-4.883738 11.488794,-7.325607 18.854432,-7.325607 7.365635,0 13.490325,2.441869 18.374065,7.325607 4.88374,4.883738 7.32561,11.088487 7.32561,18.614248 0,7.685888 -2.44187,14.010728 -7.32561,18.974528 -4.88374,4.96379 -11.00843,7.44569 -18.374065,7.44569 z"
     id="path272"
     style="fill:#ffffff;stroke-width:4.80368"
     sodipodi:nodetypes="scscccssssssscccssssssssss" />
  <circle
     cx="100"
     cy="100"
     fill="none"
     id="circle983"
     style="fill:none;stroke:#ffffff;stroke-width:7.51648;stroke-dasharray:none;stroke-opacity:1"
     r="96.24176" />
</svg>
