<?xml version="1.0" encoding="UTF-8" standalone="no"?>
<svg
   height="150"
   width="150"
   version="1.1"
   id="svg4"
   sodipodi:docname="Watch On.svg"
   inkscape:version="1.1.2 (b8e25be833, 2022-02-05)"
   xmlns:inkscape="http://www.inkscape.org/namespaces/inkscape"
   xmlns:sodipodi="http://sodipodi.sourceforge.net/DTD/sodipodi-0.dtd"
   xmlns="http://www.w3.org/2000/svg"
   xmlns:svg="http://www.w3.org/2000/svg">
  <defs
     id="defs8" />
  <sodipodi:namedview
     id="namedview6"
     pagecolor="#ffffff"
     bordercolor="#666666"
     borderopacity="1.0"
     inkscape:pageshadow="2"
     inkscape:pageopacity="0.0"
     inkscape:pagecheckerboard="0"
     showgrid="false"
     inkscape:zoom="2.2682292"
     inkscape:cx="66.35132"
     inkscape:cy="28.656716"
     inkscape:window-width="1920"
     inkscape:window-height="1057"
     inkscape:window-x="-8"
     inkscape:window-y="-8"
     inkscape:window-maximized="1"
     inkscape:current-layer="svg4" />
  <path
     d="m 62.590145,147.99918 q -3.649958,0 -6.661175,-2.18997 -3.011216,-2.18998 -3.923706,-5.83994 L 45.617836,116.79204 Q 35.580449,110.4046 29.740514,99.45473 23.90058,88.504848 23.90058,74.999999 q 0,-13.504848 5.839934,-24.545974 Q 35.580449,39.412899 45.617836,33.20797 L 52.005264,10.03073 Q 52.917754,6.3807708 55.92897,4.1907954 58.940187,2.00082 62.590145,2.00082 h 24.819721 q 3.649959,0 6.661175,2.1899754 3.011216,2.1899754 3.923707,5.8399346 l 6.387432,23.17724 q 10.03738,6.204929 15.87731,17.246055 5.83993,11.041126 5.83993,24.545974 0,13.504849 -5.83993,24.454731 -5.83993,10.94987 -15.87731,17.33731 l -6.387432,23.17723 q -0.912491,3.64996 -3.923707,5.83994 -3.011216,2.18997 -6.661175,2.18997 z m 12.409861,-32.84963 q 16.789811,0 28.469684,-11.67987 11.67986,-11.679868 11.67986,-28.469681 0,-16.78981 -11.67986,-28.469678 -11.679873,-11.67987 -28.469684,-11.67987 -16.789812,0 -28.46968,11.67987 -11.679869,11.679868 -11.679869,28.469678 0,16.789813 11.679869,28.469681 11.679868,11.67987 28.46968,11.67987 z M 59.122685,26.820541 q 8.577403,-2.554972 15.96857,-2.554972 7.391167,0 15.786072,2.554972 L 87.592364,12.950697 H 62.407648 Z m 3.284963,110.228769 h 25.184716 l 3.284963,-13.86985 q -8.577402,2.37248 -15.877321,2.37248 -7.299918,0 -15.877321,-2.37248 z M 59.122685,12.950697 h 31.754642 z m 3.284963,124.098613 h -3.284963 31.754642 -3.284963 z"
     id="path2"
     style="stroke-width:3.64995;fill:#00ff00" />
</svg>
